<svg width="94" height="180" viewBox="0 0 94 180" fill="none" xmlns="http://www.w3.org/2000/svg">
<path d="M9.95312 13.4609C9.95312 13.5026 9.94531 13.5365 9.92969 13.5625C9.91406 13.5885 9.88281 13.6094 9.83594 13.625C9.79427 13.6406 9.73698 13.6536 9.66406 13.6641C9.59115 13.6745 9.49219 13.6797 9.36719 13.6797C9.26302 13.6797 9.17448 13.6745 9.10156 13.6641C9.02865 13.6536 8.96875 13.6406 8.92188 13.625C8.88021 13.6094 8.84896 13.5885 8.82812 13.5625C8.8125 13.5365 8.80469 13.5026 8.80469 13.4609V11H1.19531V13.4609C1.19531 13.5026 1.1849 13.5365 1.16406 13.5625C1.14844 13.5885 1.11719 13.6094 1.07031 13.625C1.02865 13.6406 0.971354 13.6536 0.898438 13.6641C0.825521 13.6745 0.734375 13.6797 0.625 13.6797C0.505208 13.6797 0.408854 13.6745 0.335938 13.6641C0.263021 13.6536 0.203125 13.6406 0.15625 13.625C0.114583 13.6094 0.0833333 13.5885 0.0625 13.5625C0.046875 13.5365 0.0390625 13.5026 0.0390625 13.4609V10.25C0.0286458 10.1146 0.0494792 10.0156 0.101562 9.95312C0.153646 9.89062 0.234375 9.85938 0.34375 9.85938H0.929688C1.07552 9.67188 1.21094 9.48177 1.33594 9.28906C1.46094 9.09115 1.58073 8.85938 1.69531 8.59375C1.8099 8.32812 1.92188 8.00521 2.03125 7.625C2.14062 7.24479 2.2474 6.77604 2.35156 6.21875C2.46094 5.65625 2.57031 4.98698 2.67969 4.21094C2.78906 3.4349 2.90365 2.51302 3.02344 1.44531C3.05469 1.25781 3.10677 1.11979 3.17969 1.03125C3.25781 0.9375 3.36719 0.890625 3.50781 0.890625H8.17188C8.3125 0.890625 8.42448 0.9375 8.50781 1.03125C8.59635 1.11979 8.64062 1.25521 8.64062 1.4375V9.85938H9.64844C9.75781 9.85938 9.83594 9.89323 9.88281 9.96094C9.92969 10.0234 9.95312 10.1224 9.95312 10.2578V13.4609ZM7.29688 2.03906H4.29688C4.1875 3.0026 4.07812 3.84375 3.96875 4.5625C3.86458 5.28125 3.76042 5.90625 3.65625 6.4375C3.55729 6.96875 3.45573 7.41927 3.35156 7.78906C3.2474 8.15365 3.14062 8.46615 3.03125 8.72656C2.92708 8.98177 2.81771 9.19792 2.70312 9.375C2.59375 9.55208 2.47917 9.71354 2.35938 9.85938H7.29688V2.03906ZM20.8516 10.8594C20.8516 10.8906 20.8411 10.9193 20.8203 10.9453C20.7995 10.9661 20.763 10.9844 20.7109 11C20.6641 11.0156 20.599 11.026 20.5156 11.0312C20.4375 11.0417 20.3359 11.0469 20.2109 11.0469C20.0651 11.0469 19.9453 11.0417 19.8516 11.0312C19.763 11.0208 19.6901 11.0078 19.6328 10.9922C19.5807 10.9714 19.5417 10.9479 19.5156 10.9219C19.4896 10.8906 19.4688 10.8568 19.4531 10.8203L18.7031 9.00781C18.6042 8.77344 18.5 8.57292 18.3906 8.40625C18.2865 8.23438 18.1693 8.09635 18.0391 7.99219C17.9089 7.88802 17.7578 7.8125 17.5859 7.76562C17.4193 7.71354 17.2214 7.6875 16.9922 7.6875H16.4688V10.8672C16.4688 10.8932 16.4557 10.9193 16.4297 10.9453C16.4036 10.9661 16.3646 10.9844 16.3125 11C16.2604 11.0156 16.1927 11.026 16.1094 11.0312C16.0312 11.0417 15.9375 11.0469 15.8281 11.0469C15.7188 11.0469 15.6224 11.0417 15.5391 11.0312C15.4557 11.026 15.388 11.0156 15.3359 11C15.2839 10.9844 15.2448 10.9661 15.2188 10.9453C15.1927 10.9193 15.1797 10.8932 15.1797 10.8672V7.6875H14.6562C14.4271 7.6875 14.2266 7.71354 14.0547 7.76562C13.8828 7.8125 13.7292 7.88802 13.5938 7.99219C13.4583 8.09635 13.3359 8.23438 13.2266 8.40625C13.1224 8.57292 13.0208 8.77344 12.9219 9.00781L12.1719 10.8203C12.1615 10.8568 12.1406 10.8906 12.1094 10.9219C12.0833 10.9479 12.0443 10.9714 11.9922 10.9922C11.9453 11.0078 11.875 11.0208 11.7812 11.0312C11.6927 11.0417 11.5781 11.0469 11.4375 11.0469C11.3177 11.0469 11.2161 11.0417 11.1328 11.0312C11.0495 11.026 10.9818 11.0156 10.9297 11C10.8828 10.9844 10.849 10.9661 10.8281 10.9453C10.8073 10.9193 10.7969 10.8906 10.7969 10.8594C10.7969 10.8281 10.8021 10.7891 10.8125 10.7422C10.8281 10.6901 10.8542 10.625 10.8906 10.5469L11.6641 8.77344C11.763 8.53906 11.8698 8.33333 11.9844 8.15625C12.099 7.97917 12.2188 7.82552 12.3438 7.69531C12.474 7.5651 12.612 7.45573 12.7578 7.36719C12.9089 7.27344 13.0729 7.19792 13.25 7.14062V7.125C13.125 7.08333 13 7.03125 12.875 6.96875C12.7552 6.90104 12.6354 6.8099 12.5156 6.69531C12.3958 6.57552 12.2786 6.42708 12.1641 6.25C12.0495 6.07292 11.9375 5.85417 11.8281 5.59375L11.1797 4.03906C11.1536 3.97135 11.1328 3.91146 11.1172 3.85938C11.1016 3.80729 11.0938 3.75781 11.0938 3.71094C11.0938 3.6849 11.1016 3.66146 11.1172 3.64062C11.138 3.61458 11.1693 3.59375 11.2109 3.57812C11.2578 3.5625 11.3203 3.55208 11.3984 3.54688C11.4818 3.53646 11.5859 3.53125 11.7109 3.53125C11.8516 3.53125 11.9688 3.53646 12.0625 3.54688C12.1562 3.55208 12.2318 3.5651 12.2891 3.58594C12.3464 3.60677 12.388 3.63281 12.4141 3.66406C12.4453 3.69531 12.4661 3.73177 12.4766 3.77344L13.0938 5.39844C13.1823 5.6224 13.2734 5.8151 13.3672 5.97656C13.4661 6.13802 13.5781 6.27083 13.7031 6.375C13.8281 6.47396 13.9661 6.54688 14.1172 6.59375C14.2734 6.63542 14.4531 6.65625 14.6562 6.65625H15.1797V3.70312C15.1797 3.67708 15.1927 3.65365 15.2188 3.63281C15.2448 3.60677 15.2839 3.58854 15.3359 3.57812C15.388 3.5625 15.4557 3.55208 15.5391 3.54688C15.6224 3.53646 15.7188 3.53125 15.8281 3.53125C15.9375 3.53125 16.0312 3.53646 16.1094 3.54688C16.1927 3.55208 16.2604 3.5625 16.3125 3.57812C16.3646 3.58854 16.4036 3.60677 16.4297 3.63281C16.4557 3.65365 16.4688 3.67708 16.4688 3.70312V6.65625H16.9922C17.1953 6.65625 17.375 6.63281 17.5312 6.58594C17.6875 6.53906 17.8281 6.46615 17.9531 6.36719C18.0833 6.26302 18.1979 6.13281 18.2969 5.97656C18.401 5.8151 18.4974 5.6224 18.5859 5.39844L19.2422 3.77344C19.263 3.73177 19.2839 3.69531 19.3047 3.66406C19.3307 3.63281 19.3672 3.60677 19.4141 3.58594C19.4661 3.5651 19.5339 3.55208 19.6172 3.54688C19.7057 3.53646 19.8203 3.53125 19.9609 3.53125C20.0859 3.53125 20.1875 3.53646 20.2656 3.54688C20.349 3.55208 20.4115 3.5625 20.4531 3.57812C20.5 3.59375 20.5312 3.61458 20.5469 3.64062C20.5677 3.66146 20.5781 3.6849 20.5781 3.71094C20.5781 3.75781 20.5703 3.80729 20.5547 3.85938C20.5391 3.91146 20.5182 3.97135 20.4922 4.03906L19.8203 5.59375C19.7109 5.85417 19.5964 6.07292 19.4766 6.25C19.362 6.42188 19.2448 6.5651 19.125 6.67969C19.0052 6.79427 18.8854 6.88542 18.7656 6.95312C18.651 7.02083 18.5339 7.07292 18.4141 7.10938V7.125C18.5911 7.1875 18.7526 7.26302 18.8984 7.35156C19.0495 7.4401 19.1875 7.55208 19.3125 7.6875C19.4427 7.81771 19.5625 7.97396 19.6719 8.15625C19.7812 8.33333 19.888 8.53906 19.9922 8.77344L20.7578 10.5469C20.7734 10.5833 20.7865 10.6172 20.7969 10.6484C20.8125 10.6797 20.8229 10.7109 20.8281 10.7422C20.8333 10.7682 20.8385 10.7917 20.8438 10.8125C20.849 10.8281 20.8516 10.8438 20.8516 10.8594ZM25.7422 11L24.8047 13.5859C24.7734 13.6693 24.6927 13.7318 24.5625 13.7734C24.4375 13.8203 24.2448 13.8438 23.9844 13.8438C23.849 13.8438 23.7396 13.8359 23.6562 13.8203C23.5729 13.8099 23.5078 13.7891 23.4609 13.7578C23.4193 13.7266 23.3958 13.6849 23.3906 13.6328C23.3854 13.5807 23.3984 13.5182 23.4297 13.4453L24.3984 11C24.3516 10.9792 24.3073 10.9453 24.2656 10.8984C24.224 10.8516 24.1953 10.8021 24.1797 10.75L21.6719 4.03125C21.6302 3.92188 21.6094 3.83594 21.6094 3.77344C21.6094 3.71094 21.6302 3.66146 21.6719 3.625C21.7135 3.58854 21.7812 3.5651 21.875 3.55469C21.9688 3.53906 22.0938 3.53125 22.25 3.53125C22.4062 3.53125 22.5286 3.53646 22.6172 3.54688C22.7057 3.55208 22.776 3.5651 22.8281 3.58594C22.8802 3.60677 22.9167 3.63802 22.9375 3.67969C22.9635 3.71615 22.9896 3.76823 23.0156 3.83594L25.0234 9.47656H25.0469L26.9844 3.80469C27.0156 3.70573 27.0521 3.64323 27.0938 3.61719C27.1406 3.58594 27.2083 3.5651 27.2969 3.55469C27.3854 3.53906 27.513 3.53125 27.6797 3.53125C27.8255 3.53125 27.9453 3.53906 28.0391 3.55469C28.1328 3.5651 28.2005 3.58854 28.2422 3.625C28.2891 3.66146 28.3125 3.71094 28.3125 3.77344C28.3125 3.83594 28.2969 3.91406 28.2656 4.00781L25.7422 11ZM35.9531 10.8047C35.9531 10.8464 35.9427 10.8828 35.9219 10.9141C35.901 10.9401 35.8672 10.9635 35.8203 10.9844C35.7734 11.0052 35.7083 11.0208 35.625 11.0312C35.5417 11.0417 35.4375 11.0469 35.3125 11.0469C35.1823 11.0469 35.0755 11.0417 34.9922 11.0312C34.9089 11.0208 34.8438 11.0052 34.7969 10.9844C34.75 10.9635 34.7161 10.9401 34.6953 10.9141C34.6745 10.8828 34.6641 10.8464 34.6641 10.8047V7.71875H31.0781V10.8047C31.0781 10.8464 31.0677 10.8828 31.0469 10.9141C31.026 10.9401 30.9922 10.9635 30.9453 10.9844C30.8984 11.0052 30.8333 11.0208 30.75 11.0312C30.6667 11.0417 30.5599 11.0469 30.4297 11.0469C30.3047 11.0469 30.2005 11.0417 30.1172 11.0312C30.0339 11.0208 29.9661 11.0052 29.9141 10.9844C29.8672 10.9635 29.8333 10.9401 29.8125 10.9141C29.7969 10.8828 29.7891 10.8464 29.7891 10.8047V3.77344C29.7891 3.73177 29.7969 3.69792 29.8125 3.67188C29.8333 3.64062 29.8672 3.61458 29.9141 3.59375C29.9661 3.56771 30.0339 3.55208 30.1172 3.54688C30.2005 3.53646 30.3047 3.53125 30.4297 3.53125C30.5599 3.53125 30.6667 3.53646 30.75 3.54688C30.8333 3.55208 30.8984 3.56771 30.9453 3.59375C30.9922 3.61458 31.026 3.64062 31.0469 3.67188C31.0677 3.69792 31.0781 3.73177 31.0781 3.77344V6.63281H34.6641V3.77344C34.6641 3.73177 34.6745 3.69792 34.6953 3.67188C34.7161 3.64062 34.75 3.61458 34.7969 3.59375C34.8438 3.56771 34.9089 3.55208 34.9922 3.54688C35.0755 3.53646 35.1823 3.53125 35.3125 3.53125C35.4375 3.53125 35.5417 3.53646 35.625 3.54688C35.7083 3.55208 35.7734 3.56771 35.8203 3.59375C35.8672 3.61458 35.901 3.64062 35.9219 3.67188C35.9427 3.69792 35.9531 3.73177 35.9531 3.77344V10.8047ZM42.5469 4.14844C42.5469 4.2526 42.5391 4.34115 42.5234 4.41406C42.513 4.48698 42.4948 4.54688 42.4688 4.59375C42.4479 4.64062 42.4219 4.67448 42.3906 4.69531C42.3646 4.71615 42.3307 4.72656 42.2891 4.72656H39.6406V10.8047C39.6406 10.8464 39.6302 10.8828 39.6094 10.9141C39.5885 10.9401 39.5547 10.9635 39.5078 10.9844C39.4609 11.0052 39.3958 11.0208 39.3125 11.0312C39.2292 11.0417 39.1224 11.0469 38.9922 11.0469C38.8672 11.0469 38.763 11.0417 38.6797 11.0312C38.5964 11.0208 38.5286 11.0052 38.4766 10.9844C38.4297 10.9635 38.3958 10.9401 38.375 10.9141C38.3594 10.8828 38.3516 10.8464 38.3516 10.8047V4.03125C38.3516 3.875 38.3854 3.76042 38.4531 3.6875C38.526 3.60938 38.625 3.57031 38.75 3.57031H42.2891C42.3307 3.57031 42.3646 3.58333 42.3906 3.60938C42.4219 3.63021 42.4479 3.66667 42.4688 3.71875C42.4948 3.76562 42.513 3.82552 42.5234 3.89844C42.5391 3.96615 42.5469 4.04948 42.5469 4.14844ZM49.0156 10.8047C49.0156 10.8464 49.0052 10.8828 48.9844 10.9141C48.9635 10.9401 48.9297 10.9635 48.8828 10.9844C48.8359 11.0052 48.7708 11.0208 48.6875 11.0312C48.6042 11.0417 48.5 11.0469 48.375 11.0469C48.2448 11.0469 48.138 11.0417 48.0547 11.0312C47.9714 11.0208 47.9036 11.0052 47.8516 10.9844C47.8047 10.9635 47.7708 10.9401 47.75 10.9141C47.7292 10.8828 47.7188 10.8464 47.7188 10.8047V4.66406H45.7812C45.6979 5.49219 45.5964 6.22917 45.4766 6.875C45.362 7.52083 45.2318 8.08333 45.0859 8.5625C44.9401 9.04167 44.776 9.44531 44.5938 9.77344C44.4115 10.1016 44.2109 10.3672 43.9922 10.5703C43.7786 10.7682 43.5443 10.9115 43.2891 11C43.0391 11.0885 42.7708 11.1328 42.4844 11.1328C42.4375 11.1328 42.3958 11.125 42.3594 11.1094C42.3281 11.0938 42.3021 11.0651 42.2812 11.0234C42.2604 10.9818 42.2448 10.9245 42.2344 10.8516C42.224 10.7734 42.2188 10.6745 42.2188 10.5547C42.2188 10.4297 42.2214 10.3281 42.2266 10.25C42.237 10.1719 42.25 10.1094 42.2656 10.0625C42.2865 10.0156 42.3099 9.98438 42.3359 9.96875C42.3672 9.95312 42.4036 9.94531 42.4453 9.94531C42.6172 9.94531 42.7812 9.90625 42.9375 9.82812C43.0938 9.74479 43.2396 9.61198 43.375 9.42969C43.5104 9.24219 43.638 9 43.7578 8.70312C43.8776 8.40104 43.987 8.03125 44.0859 7.59375C44.1849 7.15625 44.2786 6.64583 44.3672 6.0625C44.4557 5.47396 44.5391 4.79948 44.6172 4.03906C44.6276 3.88281 44.6641 3.76823 44.7266 3.69531C44.7943 3.61719 44.888 3.57812 45.0078 3.57812H48.6172C48.7422 3.57812 48.8385 3.61719 48.9062 3.69531C48.9792 3.76823 49.0156 3.88281 49.0156 4.03906V10.8047ZM57.6719 10.8125C57.6719 10.849 57.6615 10.8828 57.6406 10.9141C57.6198 10.9453 57.5859 10.9714 57.5391 10.9922C57.4922 11.0078 57.4271 11.0208 57.3438 11.0312C57.2604 11.0417 57.1562 11.0469 57.0312 11.0469C56.9062 11.0469 56.8021 11.0417 56.7188 11.0312C56.6354 11.0208 56.5677 11.0078 56.5156 10.9922C56.4635 10.9714 56.4271 10.9453 56.4062 10.9141C56.3854 10.8828 56.375 10.849 56.375 10.8125V6.76562C56.375 6.5625 56.3802 6.35677 56.3906 6.14844C56.401 5.9349 56.4141 5.72656 56.4297 5.52344C56.3099 5.73177 56.1771 5.9375 56.0312 6.14062C55.8906 6.33854 55.7474 6.53646 55.6016 6.73438L52.6172 10.8125C52.5807 10.8542 52.5469 10.8906 52.5156 10.9219C52.4896 10.9531 52.4531 10.9792 52.4062 11C52.3646 11.0156 52.3099 11.026 52.2422 11.0312C52.1745 11.0417 52.0911 11.0469 51.9922 11.0469C51.8776 11.0469 51.7839 11.0417 51.7109 11.0312C51.638 11.0208 51.5781 11.0078 51.5312 10.9922C51.4896 10.9714 51.4583 10.9453 51.4375 10.9141C51.4219 10.8828 51.4141 10.849 51.4141 10.8125V3.76562C51.4141 3.72917 51.4219 3.69531 51.4375 3.66406C51.4583 3.63281 51.4922 3.60677 51.5391 3.58594C51.5911 3.5651 51.6589 3.55208 51.7422 3.54688C51.8255 3.53646 51.9271 3.53125 52.0469 3.53125C52.2969 3.53125 52.4688 3.55208 52.5625 3.59375C52.6562 3.63021 52.7031 3.6875 52.7031 3.76562V7.83594C52.7031 8.03906 52.6979 8.24219 52.6875 8.44531C52.6771 8.64323 52.6641 8.84115 52.6484 9.03906C52.7682 8.84115 52.888 8.64844 53.0078 8.46094C53.1328 8.26823 53.2656 8.08073 53.4062 7.89844L56.4297 3.76562C56.4609 3.72396 56.4922 3.6875 56.5234 3.65625C56.5599 3.625 56.6016 3.60156 56.6484 3.58594C56.7005 3.5651 56.7604 3.55208 56.8281 3.54688C56.8958 3.53646 56.9844 3.53125 57.0938 3.53125C57.2031 3.53125 57.2943 3.53646 57.3672 3.54688C57.4453 3.55208 57.5052 3.5651 57.5469 3.58594C57.5938 3.60677 57.625 3.63281 57.6406 3.66406C57.6615 3.69531 57.6719 3.73177 57.6719 3.77344V10.8125ZM69.6328 10.8047C69.6328 10.8464 69.6224 10.8828 69.6016 10.9141C69.5807 10.9401 69.5469 10.9635 69.5 10.9844C69.4531 11.0052 69.388 11.0208 69.3047 11.0312C69.2214 11.0417 69.1172 11.0469 68.9922 11.0469C68.862 11.0469 68.7552 11.0417 68.6719 11.0312C68.5885 11.0208 68.5208 11.0052 68.4688 10.9844C68.4219 10.9635 68.388 10.9401 68.3672 10.9141C68.3464 10.8828 68.3359 10.8464 68.3359 10.8047V4.66406H64.9844V10.8047C64.9844 10.8464 64.974 10.8828 64.9531 10.9141C64.9323 10.9401 64.8958 10.9635 64.8438 10.9844C64.7969 11.0052 64.7318 11.0208 64.6484 11.0312C64.5651 11.0417 64.4609 11.0469 64.3359 11.0469C64.2109 11.0469 64.1068 11.0417 64.0234 11.0312C63.9401 11.0208 63.8724 11.0052 63.8203 10.9844C63.7734 10.9635 63.7396 10.9401 63.7188 10.9141C63.7031 10.8828 63.6953 10.8464 63.6953 10.8047V4.03125C63.6953 3.875 63.7292 3.76042 63.7969 3.6875C63.8698 3.60938 63.9688 3.57031 64.0938 3.57031H69.2422C69.3672 3.57031 69.4635 3.60938 69.5312 3.6875C69.599 3.76042 69.6328 3.875 69.6328 4.03125V10.8047ZM77.3203 10.8125C77.3203 10.875 77.2995 10.9219 77.2578 10.9531C77.2161 10.9844 77.1589 11.0078 77.0859 11.0234C77.013 11.0391 76.9062 11.0469 76.7656 11.0469C76.6302 11.0469 76.5208 11.0391 76.4375 11.0234C76.3594 11.0078 76.3021 10.9844 76.2656 10.9531C76.2292 10.9219 76.2109 10.875 76.2109 10.8125V10.1094C75.9036 10.4375 75.5599 10.6927 75.1797 10.875C74.8047 11.0573 74.4062 11.1484 73.9844 11.1484C73.6146 11.1484 73.2786 11.099 72.9766 11C72.6797 10.9062 72.4245 10.7682 72.2109 10.5859C72.0026 10.4036 71.8385 10.1797 71.7188 9.91406C71.6042 9.64844 71.5469 9.34635 71.5469 9.00781C71.5469 8.61198 71.6276 8.26823 71.7891 7.97656C71.9505 7.6849 72.1823 7.44271 72.4844 7.25C72.7865 7.05729 73.1562 6.91406 73.5938 6.82031C74.0312 6.72135 74.5234 6.67188 75.0703 6.67188H76.0391V6.125C76.0391 5.85417 76.0104 5.61458 75.9531 5.40625C75.8958 5.19792 75.8021 5.02604 75.6719 4.89062C75.5469 4.75 75.3828 4.64583 75.1797 4.57812C74.9766 4.50521 74.7266 4.46875 74.4297 4.46875C74.112 4.46875 73.8255 4.50781 73.5703 4.58594C73.3203 4.65885 73.099 4.74219 72.9062 4.83594C72.7188 4.92448 72.5599 5.00781 72.4297 5.08594C72.3047 5.15885 72.2109 5.19531 72.1484 5.19531C72.1068 5.19531 72.0703 5.1849 72.0391 5.16406C72.0078 5.14323 71.9792 5.11198 71.9531 5.07031C71.9323 5.02865 71.9167 4.97656 71.9062 4.91406C71.8958 4.84635 71.8906 4.77344 71.8906 4.69531C71.8906 4.5651 71.8984 4.46354 71.9141 4.39062C71.9349 4.3125 71.9792 4.23958 72.0469 4.17188C72.1198 4.10417 72.2422 4.02604 72.4141 3.9375C72.5859 3.84375 72.7839 3.76042 73.0078 3.6875C73.2318 3.60938 73.4766 3.54688 73.7422 3.5C74.0078 3.44792 74.276 3.42188 74.5469 3.42188C75.0521 3.42188 75.4818 3.47917 75.8359 3.59375C76.1901 3.70833 76.4766 3.8776 76.6953 4.10156C76.9141 4.32031 77.0729 4.59375 77.1719 4.92188C77.2708 5.25 77.3203 5.63281 77.3203 6.07031V10.8125ZM76.0391 7.60156H74.9375C74.5833 7.60156 74.276 7.63281 74.0156 7.69531C73.7552 7.7526 73.5391 7.84115 73.3672 7.96094C73.1953 8.07552 73.0677 8.21615 72.9844 8.38281C72.9062 8.54427 72.8672 8.73177 72.8672 8.94531C72.8672 9.3099 72.9818 9.60156 73.2109 9.82031C73.4453 10.0339 73.7708 10.1406 74.1875 10.1406C74.526 10.1406 74.8385 10.0547 75.125 9.88281C75.4167 9.71094 75.7214 9.44792 76.0391 9.09375V7.60156ZM86.1641 7.17969C86.1641 7.79427 86.0964 8.34635 85.9609 8.83594C85.8307 9.32552 85.6354 9.74219 85.375 10.0859C85.1198 10.4245 84.8021 10.6875 84.4219 10.875C84.0417 11.0573 83.6068 11.1484 83.1172 11.1484C82.9089 11.1484 82.7161 11.1276 82.5391 11.0859C82.362 11.0443 82.1875 10.9792 82.0156 10.8906C81.849 10.8021 81.6823 10.6901 81.5156 10.5547C81.349 10.4193 81.1719 10.2604 80.9844 10.0781V13.5938C80.9844 13.6354 80.974 13.6719 80.9531 13.7031C80.9323 13.7344 80.8984 13.7604 80.8516 13.7812C80.8047 13.8021 80.7396 13.8177 80.6562 13.8281C80.5729 13.8385 80.4661 13.8438 80.3359 13.8438C80.2109 13.8438 80.1068 13.8385 80.0234 13.8281C79.9401 13.8177 79.8724 13.8021 79.8203 13.7812C79.7734 13.7604 79.7396 13.7344 79.7188 13.7031C79.7031 13.6719 79.6953 13.6354 79.6953 13.5938V3.77344C79.6953 3.72656 79.7031 3.6901 79.7188 3.66406C79.7344 3.63281 79.7656 3.60677 79.8125 3.58594C79.8594 3.5651 79.9193 3.55208 79.9922 3.54688C80.0651 3.53646 80.1536 3.53125 80.2578 3.53125C80.3672 3.53125 80.4557 3.53646 80.5234 3.54688C80.5964 3.55208 80.6562 3.5651 80.7031 3.58594C80.75 3.60677 80.7812 3.63281 80.7969 3.66406C80.8177 3.6901 80.8281 3.72656 80.8281 3.77344V4.71875C81.0417 4.5 81.2474 4.3099 81.4453 4.14844C81.6432 3.98698 81.8411 3.85417 82.0391 3.75C82.2422 3.64062 82.4479 3.5599 82.6562 3.50781C82.8698 3.45052 83.0938 3.42188 83.3281 3.42188C83.8385 3.42188 84.2734 3.52083 84.6328 3.71875C84.9922 3.91667 85.2839 4.1875 85.5078 4.53125C85.737 4.875 85.9036 5.27604 86.0078 5.73438C86.112 6.1875 86.1641 6.66927 86.1641 7.17969ZM84.8047 7.32812C84.8047 6.96875 84.776 6.6224 84.7188 6.28906C84.6667 5.95052 84.5729 5.65104 84.4375 5.39062C84.3073 5.13021 84.1302 4.92188 83.9062 4.76562C83.6823 4.60938 83.4036 4.53125 83.0703 4.53125C82.9036 4.53125 82.7396 4.55729 82.5781 4.60938C82.4167 4.65625 82.2526 4.73438 82.0859 4.84375C81.9193 4.94792 81.7448 5.08854 81.5625 5.26562C81.3802 5.4375 81.1875 5.65104 80.9844 5.90625V8.70312C81.3385 9.13542 81.6745 9.46615 81.9922 9.69531C82.3099 9.92448 82.6432 10.0391 82.9922 10.0391C83.3151 10.0391 83.5911 9.96094 83.8203 9.80469C84.0547 9.64844 84.2422 9.4401 84.3828 9.17969C84.5286 8.91927 84.6354 8.6276 84.7031 8.30469C84.7708 7.98177 84.8047 7.65625 84.8047 7.32812ZM93.8359 10.8594C93.8359 10.8906 93.8255 10.9193 93.8047 10.9453C93.7891 10.9661 93.7552 10.9844 93.7031 11C93.6562 11.0156 93.5911 11.026 93.5078 11.0312C93.4297 11.0417 93.3281 11.0469 93.2031 11.0469C93.0573 11.0469 92.9375 11.0417 92.8438 11.0312C92.7552 11.0208 92.6823 11.0078 92.625 10.9922C92.5677 10.9714 92.526 10.9479 92.5 10.9219C92.474 10.8906 92.4557 10.8568 92.4453 10.8203L91.6953 9C91.6016 8.76562 91.5 8.5651 91.3906 8.39844C91.2865 8.22656 91.1641 8.08854 91.0234 7.98438C90.8828 7.88021 90.724 7.80469 90.5469 7.75781C90.3698 7.71094 90.1667 7.6875 89.9375 7.6875H89.3906V10.8516C89.3906 10.8776 89.3776 10.9036 89.3516 10.9297C89.3255 10.9557 89.2865 10.9766 89.2344 10.9922C89.1823 11.0078 89.1146 11.0208 89.0312 11.0312C88.9479 11.0417 88.8516 11.0469 88.7422 11.0469C88.6328 11.0469 88.5365 11.0417 88.4531 11.0312C88.3698 11.0208 88.3021 11.0078 88.25 10.9922C88.1979 10.9766 88.1589 10.9557 88.1328 10.9297C88.112 10.9036 88.1016 10.8776 88.1016 10.8516V3.71094C88.1016 3.6849 88.112 3.66146 88.1328 3.64062C88.1589 3.61458 88.1979 3.59375 88.25 3.57812C88.3021 3.5625 88.3698 3.55208 88.4531 3.54688C88.5365 3.53646 88.6328 3.53125 88.7422 3.53125C88.8516 3.53125 88.9479 3.53646 89.0312 3.54688C89.1146 3.55208 89.1823 3.5625 89.2344 3.57812C89.2865 3.59375 89.3255 3.61458 89.3516 3.64062C89.3776 3.66146 89.3906 3.6849 89.3906 3.71094V6.65625H89.9375C90.1354 6.65625 90.3151 6.63542 90.4766 6.59375C90.6432 6.54688 90.7943 6.47396 90.9297 6.375C91.0651 6.27083 91.1849 6.13802 91.2891 5.97656C91.3984 5.8151 91.4974 5.61979 91.5859 5.39062L92.2422 3.77344C92.2526 3.73177 92.2708 3.69531 92.2969 3.66406C92.3229 3.63281 92.362 3.60677 92.4141 3.58594C92.4661 3.5651 92.5339 3.55208 92.6172 3.54688C92.7057 3.53646 92.8203 3.53125 92.9609 3.53125C93.0859 3.53125 93.1875 3.53646 93.2656 3.54688C93.349 3.55208 93.4115 3.5625 93.4531 3.57812C93.5 3.59375 93.5312 3.61458 93.5469 3.64062C93.5625 3.66146 93.5703 3.6849 93.5703 3.71094C93.5703 3.75781 93.5625 3.80729 93.5469 3.85938C93.5365 3.91146 93.5182 3.97135 93.4922 4.03906L92.8203 5.58594C92.7161 5.84635 92.6016 6.0651 92.4766 6.24219C92.3568 6.41927 92.2344 6.56771 92.1094 6.6875C91.9844 6.80208 91.8568 6.89323 91.7266 6.96094C91.5964 7.02344 91.4714 7.07292 91.3516 7.10938V7.125C91.5339 7.1875 91.7005 7.26302 91.8516 7.35156C92.0078 7.4401 92.151 7.54948 92.2812 7.67969C92.4167 7.8099 92.5417 7.96615 92.6562 8.14844C92.7708 8.32552 92.8776 8.53125 92.9766 8.76562L93.75 10.5469C93.7708 10.5833 93.7865 10.6172 93.7969 10.6484C93.8073 10.6797 93.8151 10.7109 93.8203 10.7422C93.8255 10.7682 93.8281 10.7917 93.8281 10.8125C93.8333 10.8281 93.8359 10.8438 93.8359 10.8594ZM12.3359 66.7969C12.3359 66.8385 12.3255 66.875 12.3047 66.9062C12.2839 66.9375 12.2474 66.9635 12.1953 66.9844C12.1432 67 12.0755 67.013 11.9922 67.0234C11.9141 67.0391 11.8099 67.0469 11.6797 67.0469C11.5599 67.0469 11.4557 67.0391 11.3672 67.0234C11.2839 67.013 11.2161 67 11.1641 66.9844C11.1172 66.9635 11.0833 66.9375 11.0625 66.9062C11.0417 66.875 11.0312 66.8385 11.0312 66.7969V57.9922H11.0156L7.41406 66.8359C7.39844 66.8724 7.375 66.9036 7.34375 66.9297C7.31771 66.9557 7.27604 66.9792 7.21875 67C7.16667 67.0156 7.10156 67.026 7.02344 67.0312C6.95052 67.0417 6.86198 67.0469 6.75781 67.0469C6.64844 67.0469 6.55469 67.0417 6.47656 67.0312C6.39844 67.0208 6.33333 67.0078 6.28125 66.9922C6.22917 66.9714 6.1875 66.9479 6.15625 66.9219C6.13021 66.8958 6.11198 66.8672 6.10156 66.8359L2.65625 57.9922H2.64844V66.7969C2.64844 66.8385 2.63802 66.875 2.61719 66.9062C2.59635 66.9375 2.5599 66.9635 2.50781 66.9844C2.45573 67 2.38802 67.013 2.30469 67.0234C2.22135 67.0391 2.11458 67.0469 1.98438 67.0469C1.85938 67.0469 1.75521 67.0391 1.67188 67.0234C1.58854 67.013 1.52083 67 1.46875 66.9844C1.42188 66.9635 1.38802 66.9375 1.36719 66.9062C1.35156 66.875 1.34375 66.8385 1.34375 66.7969V57.5C1.34375 57.2812 1.40104 57.125 1.51562 57.0312C1.63021 56.9375 1.75781 56.8906 1.89844 56.8906H2.71094C2.8776 56.8906 3.02344 56.9062 3.14844 56.9375C3.27344 56.9688 3.38281 57.0182 3.47656 57.0859C3.57031 57.1536 3.64844 57.2396 3.71094 57.3438C3.77344 57.4479 3.82812 57.5703 3.875 57.7109L6.80469 65.0312H6.84375L9.89062 57.7344C9.94792 57.5781 10.0104 57.4453 10.0781 57.3359C10.1458 57.2266 10.2188 57.1406 10.2969 57.0781C10.3802 57.0104 10.4714 56.9635 10.5703 56.9375C10.6693 56.9062 10.7839 56.8906 10.9141 56.8906H11.7656C11.8438 56.8906 11.9167 56.9036 11.9844 56.9297C12.0573 56.9505 12.1172 56.987 12.1641 57.0391C12.2161 57.0859 12.2578 57.1484 12.2891 57.2266C12.3203 57.2995 12.3359 57.3906 12.3359 57.5V66.7969ZM20.8828 62.9844C20.8828 63.1875 20.8307 63.3333 20.7266 63.4219C20.6276 63.5052 20.513 63.5469 20.3828 63.5469H15.7734C15.7734 63.9375 15.8125 64.2891 15.8906 64.6016C15.9688 64.9141 16.099 65.1823 16.2812 65.4062C16.4635 65.6302 16.7005 65.8021 16.9922 65.9219C17.2839 66.0417 17.6406 66.1016 18.0625 66.1016C18.3958 66.1016 18.6927 66.0755 18.9531 66.0234C19.2135 65.9661 19.4375 65.9036 19.625 65.8359C19.8177 65.7682 19.974 65.7083 20.0938 65.6562C20.2188 65.599 20.3125 65.5703 20.375 65.5703C20.4115 65.5703 20.4427 65.5807 20.4688 65.6016C20.5 65.6172 20.5234 65.6432 20.5391 65.6797C20.5547 65.7161 20.5651 65.7682 20.5703 65.8359C20.5807 65.8984 20.5859 65.9766 20.5859 66.0703C20.5859 66.138 20.5833 66.1979 20.5781 66.25C20.5729 66.2969 20.5651 66.3411 20.5547 66.3828C20.5495 66.4193 20.5365 66.4531 20.5156 66.4844C20.5 66.5156 20.4766 66.5469 20.4453 66.5781C20.4193 66.6042 20.3359 66.651 20.1953 66.7188C20.0547 66.7812 19.8724 66.8438 19.6484 66.9062C19.4245 66.9688 19.1641 67.0234 18.8672 67.0703C18.5755 67.1224 18.263 67.1484 17.9297 67.1484C17.3516 67.1484 16.8438 67.0677 16.4062 66.9062C15.974 66.7448 15.6094 66.5052 15.3125 66.1875C15.0156 65.8698 14.7917 65.4714 14.6406 64.9922C14.4896 64.513 14.4141 63.9557 14.4141 63.3203C14.4141 62.7161 14.4922 62.1745 14.6484 61.6953C14.8047 61.2109 15.0286 60.8021 15.3203 60.4688C15.6172 60.1302 15.974 59.8724 16.3906 59.6953C16.8073 59.513 17.2734 59.4219 17.7891 59.4219C18.3411 59.4219 18.8099 59.5104 19.1953 59.6875C19.5859 59.8646 19.9062 60.1042 20.1562 60.4062C20.4062 60.7031 20.5885 61.0547 20.7031 61.4609C20.8229 61.862 20.8828 62.2917 20.8828 62.75V62.9844ZM19.5859 62.6016C19.6016 61.9245 19.4505 61.3932 19.1328 61.0078C18.8203 60.6224 18.3542 60.4297 17.7344 60.4297C17.4167 60.4297 17.138 60.4896 16.8984 60.6094C16.6589 60.7292 16.4583 60.888 16.2969 61.0859C16.1354 61.2839 16.0104 61.5156 15.9219 61.7812C15.8333 62.0417 15.7839 62.3151 15.7734 62.6016H19.5859ZM29.3203 63.1797C29.3203 63.7943 29.2526 64.3464 29.1172 64.8359C28.987 65.3255 28.7917 65.7422 28.5312 66.0859C28.276 66.4245 27.9583 66.6875 27.5781 66.875C27.1979 67.0573 26.763 67.1484 26.2734 67.1484C26.0651 67.1484 25.8724 67.1276 25.6953 67.0859C25.5182 67.0443 25.3438 66.9792 25.1719 66.8906C25.0052 66.8021 24.8385 66.6901 24.6719 66.5547C24.5052 66.4193 24.3281 66.2604 24.1406 66.0781V69.5938C24.1406 69.6354 24.1302 69.6719 24.1094 69.7031C24.0885 69.7344 24.0547 69.7604 24.0078 69.7812C23.9609 69.8021 23.8958 69.8177 23.8125 69.8281C23.7292 69.8385 23.6224 69.8438 23.4922 69.8438C23.3672 69.8438 23.263 69.8385 23.1797 69.8281C23.0964 69.8177 23.0286 69.8021 22.9766 69.7812C22.9297 69.7604 22.8958 69.7344 22.875 69.7031C22.8594 69.6719 22.8516 69.6354 22.8516 69.5938V59.7734C22.8516 59.7266 22.8594 59.6901 22.875 59.6641C22.8906 59.6328 22.9219 59.6068 22.9688 59.5859C23.0156 59.5651 23.0755 59.5521 23.1484 59.5469C23.2214 59.5365 23.3099 59.5312 23.4141 59.5312C23.5234 59.5312 23.612 59.5365 23.6797 59.5469C23.7526 59.5521 23.8125 59.5651 23.8594 59.5859C23.9062 59.6068 23.9375 59.6328 23.9531 59.6641C23.974 59.6901 23.9844 59.7266 23.9844 59.7734V60.7188C24.1979 60.5 24.4036 60.3099 24.6016 60.1484C24.7995 59.987 24.9974 59.8542 25.1953 59.75C25.3984 59.6406 25.6042 59.5599 25.8125 59.5078C26.026 59.4505 26.25 59.4219 26.4844 59.4219C26.9948 59.4219 27.4297 59.5208 27.7891 59.7188C28.1484 59.9167 28.4401 60.1875 28.6641 60.5312C28.8932 60.875 29.0599 61.276 29.1641 61.7344C29.2682 62.1875 29.3203 62.6693 29.3203 63.1797ZM27.9609 63.3281C27.9609 62.9688 27.9323 62.6224 27.875 62.2891C27.8229 61.9505 27.7292 61.651 27.5938 61.3906C27.4635 61.1302 27.2865 60.9219 27.0625 60.7656C26.8385 60.6094 26.5599 60.5312 26.2266 60.5312C26.0599 60.5312 25.8958 60.5573 25.7344 60.6094C25.5729 60.6562 25.4089 60.7344 25.2422 60.8438C25.0755 60.9479 24.901 61.0885 24.7188 61.2656C24.5365 61.4375 24.3438 61.651 24.1406 61.9062V64.7031C24.4948 65.1354 24.8307 65.4661 25.1484 65.6953C25.4661 65.9245 25.7995 66.0391 26.1484 66.0391C26.4714 66.0391 26.7474 65.9609 26.9766 65.8047C27.2109 65.6484 27.3984 65.4401 27.5391 65.1797C27.6849 64.9193 27.7917 64.6276 27.8594 64.3047C27.9271 63.9818 27.9609 63.6562 27.9609 63.3281ZM37.7969 63.2109C37.7969 63.7839 37.7214 64.3125 37.5703 64.7969C37.4193 65.276 37.1927 65.6901 36.8906 66.0391C36.5938 66.388 36.2188 66.6615 35.7656 66.8594C35.3177 67.0521 34.7969 67.1484 34.2031 67.1484C33.625 67.1484 33.1198 67.0625 32.6875 66.8906C32.2604 66.7188 31.9036 66.4688 31.6172 66.1406C31.3307 65.8125 31.1172 65.4141 30.9766 64.9453C30.8359 64.4766 30.7656 63.9453 30.7656 63.3516C30.7656 62.7786 30.8385 62.2526 30.9844 61.7734C31.1354 61.2891 31.3594 60.8724 31.6562 60.5234C31.9583 60.1745 32.3333 59.9036 32.7812 59.7109C33.2292 59.5182 33.7526 59.4219 34.3516 59.4219C34.9297 59.4219 35.4323 59.5078 35.8594 59.6797C36.2917 59.8516 36.651 60.1016 36.9375 60.4297C37.224 60.7578 37.4375 61.1562 37.5781 61.625C37.724 62.0938 37.7969 62.6224 37.7969 63.2109ZM36.4375 63.2969C36.4375 62.9167 36.401 62.5573 36.3281 62.2188C36.2604 61.8802 36.1458 61.5833 35.9844 61.3281C35.8229 61.0729 35.6042 60.8724 35.3281 60.7266C35.0521 60.5755 34.7083 60.5 34.2969 60.5C33.9167 60.5 33.5885 60.5677 33.3125 60.7031C33.0417 60.8385 32.8177 61.0312 32.6406 61.2812C32.4635 61.526 32.3307 61.8177 32.2422 62.1562C32.1589 62.4948 32.1172 62.8646 32.1172 63.2656C32.1172 63.651 32.151 64.013 32.2188 64.3516C32.2917 64.6901 32.4089 64.987 32.5703 65.2422C32.737 65.4922 32.9583 65.6927 33.2344 65.8438C33.5104 65.9896 33.8542 66.0625 34.2656 66.0625C34.6406 66.0625 34.9661 65.9948 35.2422 65.8594C35.5182 65.724 35.7448 65.5339 35.9219 65.2891C36.099 65.0443 36.2292 64.7526 36.3125 64.4141C36.3958 64.0755 36.4375 63.7031 36.4375 63.2969ZM45.6328 66.8047C45.6328 66.8464 45.6224 66.8828 45.6016 66.9141C45.5807 66.9401 45.5469 66.9635 45.5 66.9844C45.4531 67.0052 45.388 67.0208 45.3047 67.0312C45.2214 67.0417 45.1172 67.0469 44.9922 67.0469C44.862 67.0469 44.7552 67.0417 44.6719 67.0312C44.5885 67.0208 44.5208 67.0052 44.4688 66.9844C44.4219 66.9635 44.388 66.9401 44.3672 66.9141C44.3464 66.8828 44.3359 66.8464 44.3359 66.8047V60.6641H40.9844V66.8047C40.9844 66.8464 40.974 66.8828 40.9531 66.9141C40.9323 66.9401 40.8958 66.9635 40.8438 66.9844C40.7969 67.0052 40.7318 67.0208 40.6484 67.0312C40.5651 67.0417 40.4609 67.0469 40.3359 67.0469C40.2109 67.0469 40.1068 67.0417 40.0234 67.0312C39.9401 67.0208 39.8724 67.0052 39.8203 66.9844C39.7734 66.9635 39.7396 66.9401 39.7188 66.9141C39.7031 66.8828 39.6953 66.8464 39.6953 66.8047V60.0312C39.6953 59.875 39.7292 59.7604 39.7969 59.6875C39.8698 59.6094 39.9688 59.5703 40.0938 59.5703H45.2422C45.3672 59.5703 45.4635 59.6094 45.5312 59.6875C45.599 59.7604 45.6328 59.875 45.6328 60.0312V66.8047ZM54.4922 63.1797C54.4922 63.7943 54.4245 64.3464 54.2891 64.8359C54.1589 65.3255 53.9635 65.7422 53.7031 66.0859C53.4479 66.4245 53.1302 66.6875 52.75 66.875C52.3698 67.0573 51.9349 67.1484 51.4453 67.1484C51.237 67.1484 51.0443 67.1276 50.8672 67.0859C50.6901 67.0443 50.5156 66.9792 50.3438 66.8906C50.1771 66.8021 50.0104 66.6901 49.8438 66.5547C49.6771 66.4193 49.5 66.2604 49.3125 66.0781V69.5938C49.3125 69.6354 49.3021 69.6719 49.2812 69.7031C49.2604 69.7344 49.2266 69.7604 49.1797 69.7812C49.1328 69.8021 49.0677 69.8177 48.9844 69.8281C48.901 69.8385 48.7943 69.8438 48.6641 69.8438C48.5391 69.8438 48.4349 69.8385 48.3516 69.8281C48.2682 69.8177 48.2005 69.8021 48.1484 69.7812C48.1016 69.7604 48.0677 69.7344 48.0469 69.7031C48.0312 69.6719 48.0234 69.6354 48.0234 69.5938V59.7734C48.0234 59.7266 48.0312 59.6901 48.0469 59.6641C48.0625 59.6328 48.0938 59.6068 48.1406 59.5859C48.1875 59.5651 48.2474 59.5521 48.3203 59.5469C48.3932 59.5365 48.4818 59.5312 48.5859 59.5312C48.6953 59.5312 48.7839 59.5365 48.8516 59.5469C48.9245 59.5521 48.9844 59.5651 49.0312 59.5859C49.0781 59.6068 49.1094 59.6328 49.125 59.6641C49.1458 59.6901 49.1562 59.7266 49.1562 59.7734V60.7188C49.3698 60.5 49.5755 60.3099 49.7734 60.1484C49.9714 59.987 50.1693 59.8542 50.3672 59.75C50.5703 59.6406 50.776 59.5599 50.9844 59.5078C51.1979 59.4505 51.4219 59.4219 51.6562 59.4219C52.1667 59.4219 52.6016 59.5208 52.9609 59.7188C53.3203 59.9167 53.612 60.1875 53.8359 60.5312C54.0651 60.875 54.2318 61.276 54.3359 61.7344C54.4401 62.1875 54.4922 62.6693 54.4922 63.1797ZM53.1328 63.3281C53.1328 62.9688 53.1042 62.6224 53.0469 62.2891C52.9948 61.9505 52.901 61.651 52.7656 61.3906C52.6354 61.1302 52.4583 60.9219 52.2344 60.7656C52.0104 60.6094 51.7318 60.5312 51.3984 60.5312C51.2318 60.5312 51.0677 60.5573 50.9062 60.6094C50.7448 60.6562 50.5807 60.7344 50.4141 60.8438C50.2474 60.9479 50.0729 61.0885 49.8906 61.2656C49.7083 61.4375 49.5156 61.651 49.3125 61.9062V64.7031C49.6667 65.1354 50.0026 65.4661 50.3203 65.6953C50.638 65.9245 50.9714 66.0391 51.3203 66.0391C51.6432 66.0391 51.9193 65.9609 52.1484 65.8047C52.3828 65.6484 52.5703 65.4401 52.7109 65.1797C52.8568 64.9193 52.9635 64.6276 53.0312 64.3047C53.099 63.9818 53.1328 63.6562 53.1328 63.3281ZM62.6875 66.8125C62.6875 66.849 62.6771 66.8828 62.6562 66.9141C62.6354 66.9453 62.6016 66.9714 62.5547 66.9922C62.5078 67.0078 62.4427 67.0208 62.3594 67.0312C62.276 67.0417 62.1719 67.0469 62.0469 67.0469C61.9219 67.0469 61.8177 67.0417 61.7344 67.0312C61.651 67.0208 61.5833 67.0078 61.5312 66.9922C61.4792 66.9714 61.4427 66.9453 61.4219 66.9141C61.401 66.8828 61.3906 66.849 61.3906 66.8125V62.7656C61.3906 62.5625 61.3958 62.3568 61.4062 62.1484C61.4167 61.9349 61.4297 61.7266 61.4453 61.5234C61.3255 61.7318 61.1927 61.9375 61.0469 62.1406C60.9062 62.3385 60.763 62.5365 60.6172 62.7344L57.6328 66.8125C57.5964 66.8542 57.5625 66.8906 57.5312 66.9219C57.5052 66.9531 57.4688 66.9792 57.4219 67C57.3802 67.0156 57.3255 67.026 57.2578 67.0312C57.1901 67.0417 57.1068 67.0469 57.0078 67.0469C56.8932 67.0469 56.7995 67.0417 56.7266 67.0312C56.6536 67.0208 56.5938 67.0078 56.5469 66.9922C56.5052 66.9714 56.474 66.9453 56.4531 66.9141C56.4375 66.8828 56.4297 66.849 56.4297 66.8125V59.7656C56.4297 59.7292 56.4375 59.6953 56.4531 59.6641C56.474 59.6328 56.5078 59.6068 56.5547 59.5859C56.6068 59.5651 56.6745 59.5521 56.7578 59.5469C56.8411 59.5365 56.9427 59.5312 57.0625 59.5312C57.3125 59.5312 57.4844 59.5521 57.5781 59.5938C57.6719 59.6302 57.7188 59.6875 57.7188 59.7656V63.8359C57.7188 64.0391 57.7135 64.2422 57.7031 64.4453C57.6927 64.6432 57.6797 64.8411 57.6641 65.0391C57.7839 64.8411 57.9036 64.6484 58.0234 64.4609C58.1484 64.2682 58.2812 64.0807 58.4219 63.8984L61.4453 59.7656C61.4766 59.724 61.5078 59.6875 61.5391 59.6562C61.5755 59.625 61.6172 59.6016 61.6641 59.5859C61.7161 59.5651 61.776 59.5521 61.8438 59.5469C61.9115 59.5365 62 59.5312 62.1094 59.5312C62.2188 59.5312 62.3099 59.5365 62.3828 59.5469C62.4609 59.5521 62.5208 59.5651 62.5625 59.5859C62.6094 59.6068 62.6406 59.6328 62.6562 59.6641C62.6771 59.6953 62.6875 59.7318 62.6875 59.7734V66.8125ZM70.2812 66.8047C70.2812 66.8464 70.2708 66.8828 70.25 66.9141C70.2344 66.9453 70.2031 66.9714 70.1562 66.9922C70.1094 67.0078 70.0443 67.0208 69.9609 67.0312C69.8776 67.0417 69.7682 67.0469 69.6328 67.0469C69.5078 67.0469 69.4036 67.0417 69.3203 67.0312C69.237 67.0208 69.1693 67.0078 69.1172 66.9922C69.0703 66.9714 69.0365 66.9453 69.0156 66.9141C69 66.8828 68.9922 66.8464 68.9922 66.8047V63.8438H68.25C67.9271 63.8438 67.6745 63.8698 67.4922 63.9219C67.3151 63.974 67.1536 64.0625 67.0078 64.1875C66.8672 64.3073 66.7396 64.4635 66.625 64.6562C66.5104 64.8438 66.401 65.0755 66.2969 65.3516L65.7266 66.7266C65.7005 66.7943 65.6719 66.849 65.6406 66.8906C65.6094 66.9323 65.5625 66.9661 65.5 66.9922C65.4427 67.013 65.3672 67.026 65.2734 67.0312C65.1849 67.0417 65.0729 67.0469 64.9375 67.0469C64.8385 67.0469 64.75 67.0443 64.6719 67.0391C64.599 67.0339 64.5365 67.0234 64.4844 67.0078C64.4323 66.9974 64.3932 66.9792 64.3672 66.9531C64.3411 66.9219 64.3281 66.8854 64.3281 66.8438C64.3281 66.8073 64.3411 66.75 64.3672 66.6719C64.3984 66.5885 64.4583 66.4453 64.5469 66.2422L65.1094 64.9219C65.2552 64.5885 65.4349 64.3021 65.6484 64.0625C65.862 63.8177 66.1068 63.638 66.3828 63.5234C65.8776 63.4297 65.474 63.2292 65.1719 62.9219C64.875 62.6094 64.7266 62.1979 64.7266 61.6875C64.7266 61.349 64.7969 61.0443 64.9375 60.7734C65.0781 60.4974 65.2839 60.2656 65.5547 60.0781C65.8307 59.8854 66.1667 59.7396 66.5625 59.6406C66.9635 59.5365 67.4219 59.4844 67.9375 59.4844C68.0625 59.4844 68.2057 59.487 68.3672 59.4922C68.5339 59.4974 68.7031 59.5052 68.875 59.5156C69.0521 59.526 69.2214 59.5391 69.3828 59.5547C69.5495 59.5651 69.6927 59.5755 69.8125 59.5859C69.9688 59.6016 70.0859 59.6589 70.1641 59.7578C70.2422 59.8568 70.2812 59.9792 70.2812 60.125V66.8047ZM68.9922 60.5234C68.8047 60.4974 68.612 60.4818 68.4141 60.4766C68.2161 60.4661 68.0339 60.4609 67.8672 60.4609C67.513 60.4609 67.2161 60.4922 66.9766 60.5547C66.7422 60.612 66.5521 60.6979 66.4062 60.8125C66.2656 60.9219 66.1641 61.0521 66.1016 61.2031C66.0443 61.3542 66.0156 61.5208 66.0156 61.7031C66.0156 61.8906 66.0495 62.0599 66.1172 62.2109C66.1901 62.3568 66.2969 62.4818 66.4375 62.5859C66.5833 62.6849 66.7682 62.763 66.9922 62.8203C67.2161 62.8724 67.5286 62.8984 67.9297 62.8984H68.9922V60.5234ZM77.6016 60.1562C77.6016 60.2604 77.5964 60.349 77.5859 60.4219C77.5755 60.4948 77.5573 60.5547 77.5312 60.6016C77.5104 60.6484 77.4844 60.6849 77.4531 60.7109C77.4219 60.7318 77.3828 60.7422 77.3359 60.7422H75.2266V66.8047C75.2266 66.8464 75.2161 66.8828 75.1953 66.9141C75.1745 66.9401 75.1406 66.9635 75.0938 66.9844C75.0469 67.0052 74.9818 67.0208 74.8984 67.0312C74.8151 67.0417 74.7083 67.0469 74.5781 67.0469C74.4531 67.0469 74.349 67.0417 74.2656 67.0312C74.1823 67.0208 74.1146 67.0052 74.0625 66.9844C74.0156 66.9635 73.9818 66.9401 73.9609 66.9141C73.9453 66.8828 73.9375 66.8464 73.9375 66.8047V60.7422H71.8281C71.7865 60.7422 71.7474 60.7318 71.7109 60.7109C71.6797 60.6849 71.6536 60.6484 71.6328 60.6016C71.612 60.5547 71.5938 60.4948 71.5781 60.4219C71.5677 60.3438 71.5625 60.2526 71.5625 60.1484C71.5625 60.0547 71.5677 59.9714 71.5781 59.8984C71.5938 59.8255 71.612 59.7656 71.6328 59.7188C71.6589 59.6667 71.6875 59.6302 71.7188 59.6094C71.75 59.5833 71.7865 59.5703 71.8281 59.5703H77.3359C77.3776 59.5703 77.4141 59.5833 77.4453 59.6094C77.4818 59.6302 77.5104 59.6667 77.5312 59.7188C77.5521 59.7656 77.5677 59.8281 77.5781 59.9062C77.5938 59.9792 77.6016 60.0625 77.6016 60.1562ZM85.1406 66.8125C85.1406 66.849 85.1302 66.8828 85.1094 66.9141C85.0885 66.9453 85.0547 66.9714 85.0078 66.9922C84.9609 67.0078 84.8958 67.0208 84.8125 67.0312C84.7292 67.0417 84.625 67.0469 84.5 67.0469C84.375 67.0469 84.2708 67.0417 84.1875 67.0312C84.1042 67.0208 84.0365 67.0078 83.9844 66.9922C83.9323 66.9714 83.8958 66.9453 83.875 66.9141C83.8542 66.8828 83.8438 66.849 83.8438 66.8125V62.7656C83.8438 62.5625 83.849 62.3568 83.8594 62.1484C83.8698 61.9349 83.8828 61.7266 83.8984 61.5234C83.7786 61.7318 83.6458 61.9375 83.5 62.1406C83.3594 62.3385 83.2161 62.5365 83.0703 62.7344L80.0859 66.8125C80.0495 66.8542 80.0156 66.8906 79.9844 66.9219C79.9583 66.9531 79.9219 66.9792 79.875 67C79.8333 67.0156 79.7786 67.026 79.7109 67.0312C79.6432 67.0417 79.5599 67.0469 79.4609 67.0469C79.3464 67.0469 79.2526 67.0417 79.1797 67.0312C79.1068 67.0208 79.0469 67.0078 79 66.9922C78.9583 66.9714 78.9271 66.9453 78.9062 66.9141C78.8906 66.8828 78.8828 66.849 78.8828 66.8125V59.7656C78.8828 59.7292 78.8906 59.6953 78.9062 59.6641C78.9271 59.6328 78.9609 59.6068 79.0078 59.5859C79.0599 59.5651 79.1276 59.5521 79.2109 59.5469C79.2943 59.5365 79.3958 59.5312 79.5156 59.5312C79.7656 59.5312 79.9375 59.5521 80.0312 59.5938C80.125 59.6302 80.1719 59.6875 80.1719 59.7656V63.8359C80.1719 64.0391 80.1667 64.2422 80.1562 64.4453C80.1458 64.6432 80.1328 64.8411 80.1172 65.0391C80.237 64.8411 80.3568 64.6484 80.4766 64.4609C80.6016 64.2682 80.7344 64.0807 80.875 63.8984L83.8984 59.7656C83.9297 59.724 83.9609 59.6875 83.9922 59.6562C84.0286 59.625 84.0703 59.6016 84.1172 59.5859C84.1693 59.5651 84.2292 59.5521 84.2969 59.5469C84.3646 59.5365 84.4531 59.5312 84.5625 59.5312C84.6719 59.5312 84.763 59.5365 84.8359 59.5469C84.9141 59.5521 84.974 59.5651 85.0156 59.5859C85.0625 59.6068 85.0938 59.6328 85.1094 59.6641C85.1302 59.6953 85.1406 59.7318 85.1406 59.7734V66.8125ZM92.7344 66.8047C92.7344 66.8464 92.724 66.8828 92.7031 66.9141C92.6875 66.9453 92.6562 66.9714 92.6094 66.9922C92.5625 67.0078 92.4974 67.0208 92.4141 67.0312C92.3307 67.0417 92.2214 67.0469 92.0859 67.0469C91.9609 67.0469 91.8568 67.0417 91.7734 67.0312C91.6901 67.0208 91.6224 67.0078 91.5703 66.9922C91.5234 66.9714 91.4896 66.9453 91.4688 66.9141C91.4531 66.8828 91.4453 66.8464 91.4453 66.8047V63.8438H90.7031C90.3802 63.8438 90.1276 63.8698 89.9453 63.9219C89.7682 63.974 89.6068 64.0625 89.4609 64.1875C89.3203 64.3073 89.1927 64.4635 89.0781 64.6562C88.9635 64.8438 88.8542 65.0755 88.75 65.3516L88.1797 66.7266C88.1536 66.7943 88.125 66.849 88.0938 66.8906C88.0625 66.9323 88.0156 66.9661 87.9531 66.9922C87.8958 67.013 87.8203 67.026 87.7266 67.0312C87.638 67.0417 87.526 67.0469 87.3906 67.0469C87.2917 67.0469 87.2031 67.0443 87.125 67.0391C87.0521 67.0339 86.9896 67.0234 86.9375 67.0078C86.8854 66.9974 86.8464 66.9792 86.8203 66.9531C86.7943 66.9219 86.7812 66.8854 86.7812 66.8438C86.7812 66.8073 86.7943 66.75 86.8203 66.6719C86.8516 66.5885 86.9115 66.4453 87 66.2422L87.5625 64.9219C87.7083 64.5885 87.888 64.3021 88.1016 64.0625C88.3151 63.8177 88.5599 63.638 88.8359 63.5234C88.3307 63.4297 87.9271 63.2292 87.625 62.9219C87.3281 62.6094 87.1797 62.1979 87.1797 61.6875C87.1797 61.349 87.25 61.0443 87.3906 60.7734C87.5312 60.4974 87.737 60.2656 88.0078 60.0781C88.2839 59.8854 88.6198 59.7396 89.0156 59.6406C89.4167 59.5365 89.875 59.4844 90.3906 59.4844C90.5156 59.4844 90.6589 59.487 90.8203 59.4922C90.987 59.4974 91.1562 59.5052 91.3281 59.5156C91.5052 59.526 91.6745 59.5391 91.8359 59.5547C92.0026 59.5651 92.1458 59.5755 92.2656 59.5859C92.4219 59.6016 92.5391 59.6589 92.6172 59.7578C92.6953 59.8568 92.7344 59.9792 92.7344 60.125V66.8047ZM91.4453 60.5234C91.2578 60.4974 91.0651 60.4818 90.8672 60.4766C90.6693 60.4661 90.487 60.4609 90.3203 60.4609C89.9661 60.4609 89.6693 60.4922 89.4297 60.5547C89.1953 60.612 89.0052 60.6979 88.8594 60.8125C88.7188 60.9219 88.6172 61.0521 88.5547 61.2031C88.4974 61.3542 88.4688 61.5208 88.4688 61.7031C88.4688 61.8906 88.5026 62.0599 88.5703 62.2109C88.6432 62.3568 88.75 62.4818 88.8906 62.5859C89.0365 62.6849 89.2214 62.763 89.4453 62.8203C89.6693 62.8724 89.9818 62.8984 90.3828 62.8984H91.4453V60.5234ZM8.91406 122.523C8.95573 122.638 8.97656 122.732 8.97656 122.805C8.98177 122.872 8.96354 122.924 8.92188 122.961C8.88021 122.997 8.8099 123.021 8.71094 123.031C8.61719 123.042 8.48958 123.047 8.32812 123.047C8.16667 123.047 8.03646 123.042 7.9375 123.031C7.84375 123.026 7.77083 123.016 7.71875 123C7.67188 122.979 7.63542 122.953 7.60938 122.922C7.58854 122.891 7.56771 122.852 7.54688 122.805L6.67969 120.344H2.47656L1.64844 122.773C1.63281 122.82 1.61198 122.862 1.58594 122.898C1.5599 122.93 1.52083 122.958 1.46875 122.984C1.42188 123.005 1.35156 123.021 1.25781 123.031C1.16927 123.042 1.05208 123.047 0.90625 123.047C0.755208 123.047 0.630208 123.039 0.53125 123.023C0.4375 123.013 0.369792 122.99 0.328125 122.953C0.291667 122.917 0.273438 122.865 0.273438 122.797C0.278646 122.724 0.302083 122.63 0.34375 122.516L3.73438 113.125C3.75521 113.068 3.78125 113.021 3.8125 112.984C3.84896 112.948 3.89844 112.919 3.96094 112.898C4.02865 112.878 4.11198 112.865 4.21094 112.859C4.3151 112.849 4.44531 112.844 4.60156 112.844C4.76823 112.844 4.90625 112.849 5.01562 112.859C5.125 112.865 5.21354 112.878 5.28125 112.898C5.34896 112.919 5.40104 112.951 5.4375 112.992C5.47396 113.029 5.5026 113.076 5.52344 113.133L8.91406 122.523ZM4.5625 114.234H4.55469L2.8125 119.273H6.32812L4.5625 114.234ZM16.1953 122.859C16.1953 122.891 16.1849 122.919 16.1641 122.945C16.1484 122.966 16.1146 122.984 16.0625 123C16.0156 123.016 15.9505 123.026 15.8672 123.031C15.7891 123.042 15.6875 123.047 15.5625 123.047C15.4167 123.047 15.2969 123.042 15.2031 123.031C15.1146 123.021 15.0417 123.008 14.9844 122.992C14.9271 122.971 14.8854 122.948 14.8594 122.922C14.8333 122.891 14.8151 122.857 14.8047 122.82L14.0547 121C13.9609 120.766 13.8594 120.565 13.75 120.398C13.6458 120.227 13.5234 120.089 13.3828 119.984C13.2422 119.88 13.0833 119.805 12.9062 119.758C12.7292 119.711 12.526 119.688 12.2969 119.688H11.75V122.852C11.75 122.878 11.737 122.904 11.7109 122.93C11.6849 122.956 11.6458 122.977 11.5938 122.992C11.5417 123.008 11.474 123.021 11.3906 123.031C11.3073 123.042 11.2109 123.047 11.1016 123.047C10.9922 123.047 10.8958 123.042 10.8125 123.031C10.7292 123.021 10.6615 123.008 10.6094 122.992C10.5573 122.977 10.5182 122.956 10.4922 122.93C10.4714 122.904 10.4609 122.878 10.4609 122.852V115.711C10.4609 115.685 10.4714 115.661 10.4922 115.641C10.5182 115.615 10.5573 115.594 10.6094 115.578C10.6615 115.562 10.7292 115.552 10.8125 115.547C10.8958 115.536 10.9922 115.531 11.1016 115.531C11.2109 115.531 11.3073 115.536 11.3906 115.547C11.474 115.552 11.5417 115.562 11.5938 115.578C11.6458 115.594 11.6849 115.615 11.7109 115.641C11.737 115.661 11.75 115.685 11.75 115.711V118.656H12.2969C12.4948 118.656 12.6745 118.635 12.8359 118.594C13.0026 118.547 13.1536 118.474 13.2891 118.375C13.4245 118.271 13.5443 118.138 13.6484 117.977C13.7578 117.815 13.8568 117.62 13.9453 117.391L14.6016 115.773C14.612 115.732 14.6302 115.695 14.6562 115.664C14.6823 115.633 14.7214 115.607 14.7734 115.586C14.8255 115.565 14.8932 115.552 14.9766 115.547C15.0651 115.536 15.1797 115.531 15.3203 115.531C15.4453 115.531 15.5469 115.536 15.625 115.547C15.7083 115.552 15.7708 115.562 15.8125 115.578C15.8594 115.594 15.8906 115.615 15.9062 115.641C15.9219 115.661 15.9297 115.685 15.9297 115.711C15.9297 115.758 15.9219 115.807 15.9062 115.859C15.8958 115.911 15.8776 115.971 15.8516 116.039L15.1797 117.586C15.0755 117.846 14.9609 118.065 14.8359 118.242C14.7161 118.419 14.5938 118.568 14.4688 118.688C14.3438 118.802 14.2161 118.893 14.0859 118.961C13.9557 119.023 13.8307 119.073 13.7109 119.109V119.125C13.8932 119.188 14.0599 119.263 14.2109 119.352C14.3672 119.44 14.5104 119.549 14.6406 119.68C14.776 119.81 14.901 119.966 15.0156 120.148C15.1302 120.326 15.237 120.531 15.3359 120.766L16.1094 122.547C16.1302 122.583 16.1458 122.617 16.1562 122.648C16.1667 122.68 16.1745 122.711 16.1797 122.742C16.1849 122.768 16.1875 122.792 16.1875 122.812C16.1927 122.828 16.1953 122.844 16.1953 122.859ZM25.125 125.391C25.1198 125.448 25.0729 125.49 24.9844 125.516C24.8958 125.547 24.763 125.562 24.5859 125.562C24.3932 125.562 24.2526 125.547 24.1641 125.516C24.0755 125.484 24.0312 125.443 24.0312 125.391V123H18.2812C18.1562 123 18.0573 122.964 17.9844 122.891C17.9167 122.812 17.8828 122.698 17.8828 122.547V115.773C17.8828 115.732 17.8906 115.698 17.9062 115.672C17.9271 115.641 17.9609 115.615 18.0078 115.594C18.0599 115.568 18.1276 115.552 18.2109 115.547C18.2943 115.536 18.3984 115.531 18.5234 115.531C18.6536 115.531 18.7604 115.536 18.8438 115.547C18.9271 115.552 18.9922 115.568 19.0391 115.594C19.0859 115.615 19.1198 115.641 19.1406 115.672C19.1615 115.698 19.1719 115.732 19.1719 115.773V121.891H22.5391V115.773C22.5391 115.732 22.5495 115.698 22.5703 115.672C22.5911 115.641 22.625 115.615 22.6719 115.594C22.724 115.568 22.7917 115.552 22.875 115.547C22.9583 115.536 23.0625 115.531 23.1875 115.531C23.3177 115.531 23.4245 115.536 23.5078 115.547C23.5911 115.552 23.6562 115.568 23.7031 115.594C23.75 115.615 23.7839 115.641 23.8047 115.672C23.8255 115.698 23.8359 115.732 23.8359 115.773V121.891H24.8125C24.9375 121.891 25.0208 121.914 25.0625 121.961C25.1042 122.008 25.125 122.091 25.125 122.211V125.391ZM32.8125 122.812C32.8125 122.849 32.8021 122.883 32.7812 122.914C32.7604 122.945 32.7266 122.971 32.6797 122.992C32.6328 123.008 32.5677 123.021 32.4844 123.031C32.401 123.042 32.2969 123.047 32.1719 123.047C32.0469 123.047 31.9427 123.042 31.8594 123.031C31.776 123.021 31.7083 123.008 31.6562 122.992C31.6042 122.971 31.5677 122.945 31.5469 122.914C31.526 122.883 31.5156 122.849 31.5156 122.812V118.766C31.5156 118.562 31.5208 118.357 31.5312 118.148C31.5417 117.935 31.5547 117.727 31.5703 117.523C31.4505 117.732 31.3177 117.938 31.1719 118.141C31.0312 118.339 30.888 118.536 30.7422 118.734L27.7578 122.812C27.7214 122.854 27.6875 122.891 27.6562 122.922C27.6302 122.953 27.5938 122.979 27.5469 123C27.5052 123.016 27.4505 123.026 27.3828 123.031C27.3151 123.042 27.2318 123.047 27.1328 123.047C27.0182 123.047 26.9245 123.042 26.8516 123.031C26.7786 123.021 26.7188 123.008 26.6719 122.992C26.6302 122.971 26.599 122.945 26.5781 122.914C26.5625 122.883 26.5547 122.849 26.5547 122.812V115.766C26.5547 115.729 26.5625 115.695 26.5781 115.664C26.599 115.633 26.6328 115.607 26.6797 115.586C26.7318 115.565 26.7995 115.552 26.8828 115.547C26.9661 115.536 27.0677 115.531 27.1875 115.531C27.4375 115.531 27.6094 115.552 27.7031 115.594C27.7969 115.63 27.8438 115.688 27.8438 115.766V119.836C27.8438 120.039 27.8385 120.242 27.8281 120.445C27.8177 120.643 27.8047 120.841 27.7891 121.039C27.9089 120.841 28.0286 120.648 28.1484 120.461C28.2734 120.268 28.4062 120.081 28.5469 119.898L31.5703 115.766C31.6016 115.724 31.6328 115.688 31.6641 115.656C31.7005 115.625 31.7422 115.602 31.7891 115.586C31.8411 115.565 31.901 115.552 31.9688 115.547C32.0365 115.536 32.125 115.531 32.2344 115.531C32.3438 115.531 32.4349 115.536 32.5078 115.547C32.5859 115.552 32.6458 115.565 32.6875 115.586C32.7344 115.607 32.7656 115.633 32.7812 115.664C32.8021 115.695 32.8125 115.732 32.8125 115.773V122.812ZM41.4688 122.812C41.4688 122.849 41.4583 122.883 41.4375 122.914C41.4167 122.945 41.3828 122.971 41.3359 122.992C41.2891 123.008 41.224 123.021 41.1406 123.031C41.0573 123.042 40.9531 123.047 40.8281 123.047C40.7031 123.047 40.599 123.042 40.5156 123.031C40.4323 123.021 40.3646 123.008 40.3125 122.992C40.2604 122.971 40.224 122.945 40.2031 122.914C40.1823 122.883 40.1719 122.849 40.1719 122.812V118.766C40.1719 118.562 40.1771 118.357 40.1875 118.148C40.1979 117.935 40.2109 117.727 40.2266 117.523C40.1068 117.732 39.974 117.938 39.8281 118.141C39.6875 118.339 39.5443 118.536 39.3984 118.734L36.4141 122.812C36.3776 122.854 36.3438 122.891 36.3125 122.922C36.2865 122.953 36.25 122.979 36.2031 123C36.1615 123.016 36.1068 123.026 36.0391 123.031C35.9714 123.042 35.888 123.047 35.7891 123.047C35.6745 123.047 35.5807 123.042 35.5078 123.031C35.4349 123.021 35.375 123.008 35.3281 122.992C35.2865 122.971 35.2552 122.945 35.2344 122.914C35.2188 122.883 35.2109 122.849 35.2109 122.812V115.766C35.2109 115.729 35.2188 115.695 35.2344 115.664C35.2552 115.633 35.2891 115.607 35.3359 115.586C35.388 115.565 35.4557 115.552 35.5391 115.547C35.6224 115.536 35.724 115.531 35.8438 115.531C36.0938 115.531 36.2656 115.552 36.3594 115.594C36.4531 115.63 36.5 115.688 36.5 115.766V119.836C36.5 120.039 36.4948 120.242 36.4844 120.445C36.474 120.643 36.4609 120.841 36.4453 121.039C36.5651 120.841 36.6849 120.648 36.8047 120.461C36.9297 120.268 37.0625 120.081 37.2031 119.898L40.2266 115.766C40.2578 115.724 40.2891 115.688 40.3203 115.656C40.3568 115.625 40.3984 115.602 40.4453 115.586C40.4974 115.565 40.5573 115.552 40.625 115.547C40.6927 115.536 40.7812 115.531 40.8906 115.531C41 115.531 41.0911 115.536 41.1641 115.547C41.2422 115.552 41.3021 115.565 41.3438 115.586C41.3906 115.607 41.4219 115.633 41.4375 115.664C41.4583 115.695 41.4688 115.732 41.4688 115.773V122.812ZM8.625 178.797C8.625 178.839 8.61458 178.875 8.59375 178.906C8.57292 178.938 8.53646 178.964 8.48438 178.984C8.43229 179 8.36198 179.013 8.27344 179.023C8.1901 179.039 8.08594 179.047 7.96094 179.047C7.82552 179.047 7.71615 179.039 7.63281 179.023C7.54948 179.013 7.48177 179 7.42969 178.984C7.3776 178.964 7.34115 178.938 7.32031 178.906C7.29948 178.875 7.28906 178.839 7.28906 178.797V174.312H2.6875V178.797C2.6875 178.839 2.67708 178.875 2.65625 178.906C2.63542 178.938 2.59896 178.964 2.54688 178.984C2.49479 179 2.42448 179.013 2.33594 179.023C2.2526 179.039 2.14583 179.047 2.01562 179.047C1.89062 179.047 1.78385 179.039 1.69531 179.023C1.60677 179.013 1.53646 179 1.48438 178.984C1.43229 178.964 1.39583 178.938 1.375 178.906C1.35417 178.875 1.34375 178.839 1.34375 178.797V169.094C1.34375 169.052 1.35417 169.016 1.375 168.984C1.39583 168.953 1.43229 168.93 1.48438 168.914C1.53646 168.893 1.60677 168.878 1.69531 168.867C1.78385 168.852 1.89062 168.844 2.01562 168.844C2.14583 168.844 2.2526 168.852 2.33594 168.867C2.42448 168.878 2.49479 168.893 2.54688 168.914C2.59896 168.93 2.63542 168.953 2.65625 168.984C2.67708 169.016 2.6875 169.052 2.6875 169.094V173.141H7.28906V169.094C7.28906 169.052 7.29948 169.016 7.32031 168.984C7.34115 168.953 7.3776 168.93 7.42969 168.914C7.48177 168.893 7.54948 168.878 7.63281 168.867C7.71615 168.852 7.82552 168.844 7.96094 168.844C8.08594 168.844 8.1901 168.852 8.27344 168.867C8.36198 168.878 8.43229 168.893 8.48438 168.914C8.53646 168.93 8.57292 168.953 8.59375 168.984C8.61458 169.016 8.625 169.052 8.625 169.094V178.797ZM17.7031 175.211C17.7031 175.784 17.6276 176.312 17.4766 176.797C17.3255 177.276 17.099 177.69 16.7969 178.039C16.5 178.388 16.125 178.661 15.6719 178.859C15.224 179.052 14.7031 179.148 14.1094 179.148C13.5312 179.148 13.026 179.062 12.5938 178.891C12.1667 178.719 11.8099 178.469 11.5234 178.141C11.237 177.812 11.0234 177.414 10.8828 176.945C10.7422 176.477 10.6719 175.945 10.6719 175.352C10.6719 174.779 10.7448 174.253 10.8906 173.773C11.0417 173.289 11.2656 172.872 11.5625 172.523C11.8646 172.174 12.2396 171.904 12.6875 171.711C13.1354 171.518 13.6589 171.422 14.2578 171.422C14.8359 171.422 15.3385 171.508 15.7656 171.68C16.1979 171.852 16.5573 172.102 16.8438 172.43C17.1302 172.758 17.3438 173.156 17.4844 173.625C17.6302 174.094 17.7031 174.622 17.7031 175.211ZM16.3438 175.297C16.3438 174.917 16.3073 174.557 16.2344 174.219C16.1667 173.88 16.0521 173.583 15.8906 173.328C15.7292 173.073 15.5104 172.872 15.2344 172.727C14.9583 172.576 14.6146 172.5 14.2031 172.5C13.8229 172.5 13.4948 172.568 13.2188 172.703C12.9479 172.839 12.724 173.031 12.5469 173.281C12.3698 173.526 12.237 173.818 12.1484 174.156C12.0651 174.495 12.0234 174.865 12.0234 175.266C12.0234 175.651 12.0573 176.013 12.125 176.352C12.1979 176.69 12.3151 176.987 12.4766 177.242C12.6432 177.492 12.8646 177.693 13.1406 177.844C13.4167 177.99 13.7604 178.062 14.1719 178.062C14.5469 178.062 14.8724 177.995 15.1484 177.859C15.4245 177.724 15.651 177.534 15.8281 177.289C16.0052 177.044 16.1354 176.753 16.2188 176.414C16.3021 176.076 16.3438 175.703 16.3438 175.297ZM25.375 176.781C25.375 177.151 25.3047 177.482 25.1641 177.773C25.0234 178.06 24.8151 178.302 24.5391 178.5C24.263 178.693 23.9193 178.841 23.5078 178.945C23.0964 179.044 22.6172 179.094 22.0703 179.094C21.8984 179.094 21.7318 179.091 21.5703 179.086C21.4089 179.086 21.2526 179.081 21.1016 179.07C20.9505 179.065 20.7995 179.057 20.6484 179.047C20.5026 179.036 20.3568 179.023 20.2109 179.008C20.0026 178.982 19.849 178.914 19.75 178.805C19.651 178.69 19.6016 178.523 19.6016 178.305V172.25C19.6016 172.036 19.6484 171.872 19.7422 171.758C19.8411 171.643 19.9896 171.576 20.1875 171.555C20.3229 171.539 20.4661 171.526 20.6172 171.516C20.7734 171.505 20.9323 171.497 21.0938 171.492C21.2552 171.482 21.4219 171.474 21.5938 171.469C21.7656 171.464 21.9401 171.461 22.1172 171.461C22.6224 171.461 23.0599 171.503 23.4297 171.586C23.7995 171.669 24.1068 171.792 24.3516 171.953C24.5964 172.115 24.776 172.312 24.8906 172.547C25.0104 172.781 25.0703 173.049 25.0703 173.352C25.0703 173.747 24.9635 174.086 24.75 174.367C24.5417 174.648 24.2318 174.849 23.8203 174.969C24.3359 175.078 24.724 175.289 24.9844 175.602C25.2448 175.914 25.375 176.307 25.375 176.781ZM23.8203 173.516C23.8203 173.344 23.7891 173.19 23.7266 173.055C23.6641 172.919 23.5599 172.805 23.4141 172.711C23.2734 172.617 23.0885 172.547 22.8594 172.5C22.6354 172.453 22.362 172.43 22.0391 172.43C21.7943 172.43 21.5703 172.438 21.3672 172.453C21.1641 172.464 20.9922 172.477 20.8516 172.492V174.68H22.1641C22.7005 174.68 23.1094 174.581 23.3906 174.383C23.6771 174.18 23.8203 173.891 23.8203 173.516ZM24.0547 176.805C24.0547 176.596 24.0182 176.414 23.9453 176.258C23.8724 176.096 23.7552 175.964 23.5938 175.859C23.4375 175.755 23.2344 175.677 22.9844 175.625C22.7396 175.573 22.4479 175.547 22.1094 175.547H20.8516V178.039C20.9505 178.055 21.0521 178.068 21.1562 178.078C21.2656 178.083 21.375 178.091 21.4844 178.102C21.599 178.107 21.7109 178.112 21.8203 178.117C21.9349 178.122 22.0391 178.125 22.1328 178.125C22.4714 178.125 22.7604 178.096 23 178.039C23.2396 177.977 23.4375 177.888 23.5938 177.773C23.7552 177.659 23.8724 177.521 23.9453 177.359C24.0182 177.193 24.0547 177.008 24.0547 176.805ZM33.8125 175.211C33.8125 175.784 33.737 176.312 33.5859 176.797C33.4349 177.276 33.2083 177.69 32.9062 178.039C32.6094 178.388 32.2344 178.661 31.7812 178.859C31.3333 179.052 30.8125 179.148 30.2188 179.148C29.6406 179.148 29.1354 179.062 28.7031 178.891C28.276 178.719 27.9193 178.469 27.6328 178.141C27.3464 177.812 27.1328 177.414 26.9922 176.945C26.8516 176.477 26.7812 175.945 26.7812 175.352C26.7812 174.779 26.8542 174.253 27 173.773C27.151 173.289 27.375 172.872 27.6719 172.523C27.974 172.174 28.349 171.904 28.7969 171.711C29.2448 171.518 29.7682 171.422 30.3672 171.422C30.9453 171.422 31.4479 171.508 31.875 171.68C32.3073 171.852 32.6667 172.102 32.9531 172.43C33.2396 172.758 33.4531 173.156 33.5938 173.625C33.7396 174.094 33.8125 174.622 33.8125 175.211ZM32.4531 175.297C32.4531 174.917 32.4167 174.557 32.3438 174.219C32.276 173.88 32.1615 173.583 32 173.328C31.8385 173.073 31.6198 172.872 31.3438 172.727C31.0677 172.576 30.724 172.5 30.3125 172.5C29.9323 172.5 29.6042 172.568 29.3281 172.703C29.0573 172.839 28.8333 173.031 28.6562 173.281C28.4792 173.526 28.3464 173.818 28.2578 174.156C28.1745 174.495 28.1328 174.865 28.1328 175.266C28.1328 175.651 28.1667 176.013 28.2344 176.352C28.3073 176.69 28.4245 176.987 28.5859 177.242C28.7526 177.492 28.974 177.693 29.25 177.844C29.526 177.99 29.8698 178.062 30.2812 178.062C30.6562 178.062 30.9818 177.995 31.2578 177.859C31.5339 177.724 31.7604 177.534 31.9375 177.289C32.1146 177.044 32.2448 176.753 32.3281 176.414C32.4115 176.076 32.4531 175.703 32.4531 175.297ZM40.7656 177.734C40.7656 177.823 40.763 177.901 40.7578 177.969C40.7526 178.031 40.7422 178.086 40.7266 178.133C40.7161 178.174 40.7005 178.214 40.6797 178.25C40.6641 178.281 40.6224 178.331 40.5547 178.398C40.4922 178.461 40.3828 178.542 40.2266 178.641C40.0703 178.734 39.8932 178.82 39.6953 178.898C39.5026 178.971 39.2917 179.031 39.0625 179.078C38.8333 179.125 38.5964 179.148 38.3516 179.148C37.8464 179.148 37.3984 179.065 37.0078 178.898C36.6172 178.732 36.2891 178.49 36.0234 178.172C35.763 177.849 35.5625 177.456 35.4219 176.992C35.2865 176.523 35.2188 175.984 35.2188 175.375C35.2188 174.682 35.3021 174.089 35.4688 173.594C35.6406 173.094 35.8724 172.685 36.1641 172.367C36.4609 172.049 36.8073 171.815 37.2031 171.664C37.6042 171.508 38.0365 171.43 38.5 171.43C38.724 171.43 38.9401 171.451 39.1484 171.492C39.362 171.534 39.5573 171.589 39.7344 171.656C39.9115 171.724 40.0677 171.802 40.2031 171.891C40.3438 171.979 40.4453 172.055 40.5078 172.117C40.5703 172.18 40.612 172.229 40.6328 172.266C40.6589 172.302 40.6797 172.346 40.6953 172.398C40.7109 172.445 40.7214 172.5 40.7266 172.562C40.7318 172.625 40.7344 172.703 40.7344 172.797C40.7344 173 40.7109 173.143 40.6641 173.227C40.6172 173.305 40.5599 173.344 40.4922 173.344C40.4141 173.344 40.3229 173.302 40.2188 173.219C40.1198 173.13 39.9922 173.034 39.8359 172.93C39.6797 172.826 39.4896 172.732 39.2656 172.648C39.0469 172.56 38.7865 172.516 38.4844 172.516C37.8646 172.516 37.388 172.755 37.0547 173.234C36.7266 173.708 36.5625 174.398 36.5625 175.305C36.5625 175.758 36.6042 176.156 36.6875 176.5C36.776 176.839 36.9036 177.122 37.0703 177.352C37.237 177.581 37.4401 177.753 37.6797 177.867C37.9245 177.977 38.2031 178.031 38.5156 178.031C38.8125 178.031 39.0729 177.984 39.2969 177.891C39.5208 177.797 39.7135 177.695 39.875 177.586C40.0417 177.471 40.1797 177.37 40.2891 177.281C40.4036 177.188 40.4922 177.141 40.5547 177.141C40.5911 177.141 40.6224 177.151 40.6484 177.172C40.6745 177.193 40.6953 177.229 40.7109 177.281C40.7318 177.328 40.7448 177.391 40.75 177.469C40.7604 177.542 40.7656 177.63 40.7656 177.734ZM47.3984 172.156C47.3984 172.26 47.3932 172.349 47.3828 172.422C47.3724 172.495 47.3542 172.555 47.3281 172.602C47.3073 172.648 47.2812 172.685 47.25 172.711C47.2188 172.732 47.1797 172.742 47.1328 172.742H45.0234V178.805C45.0234 178.846 45.013 178.883 44.9922 178.914C44.9714 178.94 44.9375 178.964 44.8906 178.984C44.8438 179.005 44.7786 179.021 44.6953 179.031C44.612 179.042 44.5052 179.047 44.375 179.047C44.25 179.047 44.1458 179.042 44.0625 179.031C43.9792 179.021 43.9115 179.005 43.8594 178.984C43.8125 178.964 43.7786 178.94 43.7578 178.914C43.7422 178.883 43.7344 178.846 43.7344 178.805V172.742H41.625C41.5833 172.742 41.5443 172.732 41.5078 172.711C41.4766 172.685 41.4505 172.648 41.4297 172.602C41.4089 172.555 41.3906 172.495 41.375 172.422C41.3646 172.344 41.3594 172.253 41.3594 172.148C41.3594 172.055 41.3646 171.971 41.375 171.898C41.3906 171.826 41.4089 171.766 41.4297 171.719C41.4557 171.667 41.4844 171.63 41.5156 171.609C41.5469 171.583 41.5833 171.57 41.625 171.57H47.1328C47.1745 171.57 47.2109 171.583 47.2422 171.609C47.2786 171.63 47.3073 171.667 47.3281 171.719C47.349 171.766 47.3646 171.828 47.375 171.906C47.3906 171.979 47.3984 172.062 47.3984 172.156ZM54.9375 178.812C54.9375 178.849 54.9271 178.883 54.9062 178.914C54.8854 178.945 54.8516 178.971 54.8047 178.992C54.7578 179.008 54.6927 179.021 54.6094 179.031C54.526 179.042 54.4219 179.047 54.2969 179.047C54.1719 179.047 54.0677 179.042 53.9844 179.031C53.901 179.021 53.8333 179.008 53.7812 178.992C53.7292 178.971 53.6927 178.945 53.6719 178.914C53.651 178.883 53.6406 178.849 53.6406 178.812V174.766C53.6406 174.562 53.6458 174.357 53.6562 174.148C53.6667 173.935 53.6797 173.727 53.6953 173.523C53.5755 173.732 53.4427 173.938 53.2969 174.141C53.1562 174.339 53.013 174.536 52.8672 174.734L49.8828 178.812C49.8464 178.854 49.8125 178.891 49.7812 178.922C49.7552 178.953 49.7188 178.979 49.6719 179C49.6302 179.016 49.5755 179.026 49.5078 179.031C49.4401 179.042 49.3568 179.047 49.2578 179.047C49.1432 179.047 49.0495 179.042 48.9766 179.031C48.9036 179.021 48.8438 179.008 48.7969 178.992C48.7552 178.971 48.724 178.945 48.7031 178.914C48.6875 178.883 48.6797 178.849 48.6797 178.812V171.766C48.6797 171.729 48.6875 171.695 48.7031 171.664C48.724 171.633 48.7578 171.607 48.8047 171.586C48.8568 171.565 48.9245 171.552 49.0078 171.547C49.0911 171.536 49.1927 171.531 49.3125 171.531C49.5625 171.531 49.7344 171.552 49.8281 171.594C49.9219 171.63 49.9688 171.688 49.9688 171.766V175.836C49.9688 176.039 49.9635 176.242 49.9531 176.445C49.9427 176.643 49.9297 176.841 49.9141 177.039C50.0339 176.841 50.1536 176.648 50.2734 176.461C50.3984 176.268 50.5312 176.081 50.6719 175.898L53.6953 171.766C53.7266 171.724 53.7578 171.688 53.7891 171.656C53.8255 171.625 53.8672 171.602 53.9141 171.586C53.9661 171.565 54.026 171.552 54.0938 171.547C54.1615 171.536 54.25 171.531 54.3594 171.531C54.4688 171.531 54.5599 171.536 54.6328 171.547C54.7109 171.552 54.7708 171.565 54.8125 171.586C54.8594 171.607 54.8906 171.633 54.9062 171.664C54.9271 171.695 54.9375 171.732 54.9375 171.773V178.812Z" fill="#151516"/>
</svg>
