<svg width="24" height="15" viewBox="0 0 24 15" fill="none" xmlns="http://www.w3.org/2000/svg">
<path d="M13.9157 4.27977C13.9157 5.12102 13.9111 5.96456 13.918 6.80581C13.9203 6.9667 13.9409 7.13449 13.9892 7.28849C14.0743 7.55741 14.2581 7.64705 14.5202 7.54362C14.6719 7.48386 14.819 7.38962 14.9477 7.28849C15.4304 6.90464 15.8096 6.42656 16.1682 5.93009C17.122 4.61305 17.8828 3.18569 18.531 1.69858C18.6919 1.32852 18.9195 1.03661 19.3332 0.946971C19.4458 0.921688 19.563 0.910195 19.678 0.910195C20.5031 0.907897 21.3306 0.905598 22.1557 0.910195C22.289 0.910195 22.427 0.926285 22.558 0.958463C22.8775 1.04121 23.0292 1.28255 22.9763 1.60893C22.9073 2.01806 22.751 2.39731 22.5718 2.76737C22.1281 3.68447 21.6018 4.55329 21.0525 5.41063C20.5928 6.13005 20.117 6.83799 19.6504 7.55282C19.563 7.68613 19.4849 7.82404 19.409 7.96424C19.2964 8.16881 19.2872 8.38717 19.4205 8.57794C19.5791 8.80549 19.7469 9.03304 19.9446 9.22611C20.7008 9.97312 21.4271 10.7454 22.096 11.5706C22.4936 12.0601 22.8958 12.5474 23.19 13.1083C23.3027 13.3243 23.3946 13.5611 23.4452 13.7978C23.5417 14.2529 23.2958 14.577 22.8338 14.6505C22.7166 14.6689 22.5947 14.6758 22.4752 14.6758C21.6799 14.6781 20.887 14.6712 20.0917 14.6804C19.6987 14.685 19.3562 14.5655 19.0804 14.2943C18.754 13.9725 18.4414 13.6369 18.1334 13.2967C17.4576 12.5497 16.7727 11.8142 15.9728 11.1959C15.6786 10.9684 15.3729 10.7615 15.0235 10.6213C14.8098 10.5362 14.5914 10.5133 14.3662 10.5385C14.1202 10.5661 13.9984 10.6696 13.9547 10.9155C13.9272 11.0764 13.9134 11.2396 13.9134 11.4028C13.9088 12.1383 13.9111 12.8715 13.9111 13.607C13.9111 13.7036 13.9134 13.8001 13.8996 13.8943C13.849 14.2644 13.6398 14.4621 13.2008 14.5563C12.725 14.6597 12.2424 14.6712 11.7597 14.6413C9.97836 14.5333 8.42918 13.8323 7.0271 12.7681C5.96061 11.959 5.09178 10.9661 4.33558 9.86739C3.20702 8.23087 2.20029 6.52769 1.4165 4.7004C1.04645 3.83846 0.717763 2.96274 0.533884 2.03875C0.492511 1.82959 0.481019 1.61123 0.49481 1.39977C0.508601 1.15383 0.671793 1.00443 0.901641 0.937777C1.01657 0.905598 1.13609 0.884912 1.25561 0.884912C2.14282 0.880315 3.02774 0.882613 3.91496 0.882613C4.33098 0.882613 4.64128 1.06419 4.80677 1.44804C4.94008 1.75834 5.05041 2.08012 5.16993 2.39731C5.77213 4.00396 6.50305 5.54624 7.45002 6.98049C7.76262 7.45398 8.0959 7.91368 8.52112 8.29523C8.64983 8.41015 8.79694 8.51588 8.95094 8.59173C9.24514 8.73424 9.48648 8.61012 9.55084 8.29063C9.58302 8.13203 9.59911 7.96654 9.59911 7.80335C9.6037 6.52999 9.6083 5.25663 9.59911 3.98327C9.59451 3.29832 9.39224 2.67313 8.94864 2.13529C8.87049 2.04105 8.79694 1.93992 8.72798 1.83878C8.59467 1.63881 8.56019 1.42276 8.67741 1.2067C8.79923 0.981448 9.0015 0.884912 9.25204 0.882613C9.81057 0.880315 10.3691 0.882613 10.9276 0.882613C11.6631 0.882613 12.3964 0.882613 13.1319 0.882613C13.2123 0.882613 13.2905 0.887211 13.3709 0.898703C13.6375 0.935479 13.8076 1.09407 13.8628 1.3538C13.8973 1.517 13.9134 1.68478 13.9134 1.85257C13.918 2.65934 13.9157 3.47071 13.9157 4.27977Z" fill="#6B7073"/>
</svg>
